<mxfile host="app.diagrams.net" agent="Mozilla/5.0 (Macintosh; Intel Mac OS X 10_15_7) AppleWebKit/537.36 (KHTML, like Gecko) Chrome/137.0.0.0 Safari/537.36" version="27.1.4">
  <diagram name="Page-1" id="ds3T27x99xg8qavNQ4TK">
    <mxGraphModel dx="1147" dy="643" grid="1" gridSize="10" guides="1" tooltips="1" connect="1" arrows="1" fold="1" page="1" pageScale="1" pageWidth="850" pageHeight="1100" math="0" shadow="0">
      <root>
        <mxCell id="0" />
        <mxCell id="1" parent="0" />
        <mxCell id="6m2Imb8p-eKEgnZs0dNI-4" value="" style="edgeStyle=orthogonalEdgeStyle;rounded=0;orthogonalLoop=1;jettySize=auto;html=1;" edge="1" parent="1" source="6m2Imb8p-eKEgnZs0dNI-2" target="6m2Imb8p-eKEgnZs0dNI-3">
          <mxGeometry relative="1" as="geometry" />
        </mxCell>
        <mxCell id="6m2Imb8p-eKEgnZs0dNI-2" value="" style="rounded=0;whiteSpace=wrap;html=1;" vertex="1" parent="1">
          <mxGeometry x="60" y="140" width="60" height="30" as="geometry" />
        </mxCell>
        <mxCell id="6m2Imb8p-eKEgnZs0dNI-6" value="" style="edgeStyle=orthogonalEdgeStyle;rounded=0;orthogonalLoop=1;jettySize=auto;html=1;" edge="1" parent="1" source="6m2Imb8p-eKEgnZs0dNI-3" target="6m2Imb8p-eKEgnZs0dNI-5">
          <mxGeometry relative="1" as="geometry" />
        </mxCell>
        <mxCell id="6m2Imb8p-eKEgnZs0dNI-3" value="" style="rounded=0;whiteSpace=wrap;html=1;" vertex="1" parent="1">
          <mxGeometry x="200" y="140" width="60" height="30" as="geometry" />
        </mxCell>
        <mxCell id="6m2Imb8p-eKEgnZs0dNI-5" value="" style="rounded=0;whiteSpace=wrap;html=1;" vertex="1" parent="1">
          <mxGeometry x="340" y="140" width="60" height="30" as="geometry" />
        </mxCell>
        <mxCell id="6m2Imb8p-eKEgnZs0dNI-16" value="" style="sketch=0;aspect=fixed;pointerEvents=1;shadow=0;dashed=0;html=1;strokeColor=none;labelPosition=center;verticalLabelPosition=bottom;verticalAlign=top;align=center;fillColor=#00188D;shape=mxgraph.mscae.enterprise.lock" vertex="1" parent="1">
          <mxGeometry x="218.3" y="120" width="23.4" height="30" as="geometry" />
        </mxCell>
        <mxCell id="6m2Imb8p-eKEgnZs0dNI-17" value="" style="sketch=0;aspect=fixed;pointerEvents=1;shadow=0;dashed=0;html=1;strokeColor=none;labelPosition=center;verticalLabelPosition=bottom;verticalAlign=top;align=center;fillColor=#00188D;shape=mxgraph.mscae.enterprise.lock" vertex="1" parent="1">
          <mxGeometry x="358.3" y="120" width="23.4" height="30" as="geometry" />
        </mxCell>
        <mxCell id="6m2Imb8p-eKEgnZs0dNI-18" value="" style="shape=cross;whiteSpace=wrap;html=1;rotation=60;strokeColor=#FF0000;" vertex="1" parent="1">
          <mxGeometry x="140" y="143.23000000000002" width="22.87" height="23.54" as="geometry" />
        </mxCell>
        <mxCell id="6m2Imb8p-eKEgnZs0dNI-22" value="两把锁：不可达问题" style="text;html=1;align=center;verticalAlign=middle;whiteSpace=wrap;rounded=0;" vertex="1" parent="1">
          <mxGeometry x="30" y="90" width="130" height="30" as="geometry" />
        </mxCell>
      </root>
    </mxGraphModel>
  </diagram>
</mxfile>
